<?xml version="1.0" encoding="UTF-8"?>
<svg viewBox="0 0 119 140" xmlns="http://www.w3.org/2000/svg" xmlns:xlink="http://www.w3.org/1999/xlink">
 <defs>
  <linearGradient id="f">
   <stop stop-color="#fff" offset="0"/>
   <stop stop-color="#fff" stop-opacity="0" offset="1"/>
  </linearGradient>
  <linearGradient id="e" x1="3.8353" x2="3.8353" y1="-.34629" y2=".26302" xlink:href="#f"/>
  <linearGradient id="h" x1="2.1851" x2="2.1851" y1="-.01478" y2=".37278" xlink:href="#f"/>
  <linearGradient id="g" x1=".5" x2=".5" y2="1">
   <stop stop-color="#542800" stop-opacity=".99219" offset="0"/>
   <stop stop-color="#662000" stop-opacity=".99219" offset="1"/>
  </linearGradient>
 </defs>
 <g transform="translate(0 3.0643)">
  <path d="m22.744 74.745c9.175-16.294 14.904-32.932 20.107-45.497-0.94167-15.842 9.8776-21.056 16.945-21.056 7.067 0 19.197 4.4773 16.289 21.343 4.8746 12.77 10.276 29.736 19.451 46.521 20.316 54.87-21.607 55.822-35.741 55.822s-56.384-15.042-37.051-57.133z" fill="url(#g)" stroke="#000" stroke-dasharray="null" stroke-linecap="null" stroke-linejoin="null"/>
  <path transform="translate(0 .512) matrix(1 0 0 1 0 -37.494)" d="m59.479 46.399c-8.0699 0.2609-12.688 3.8853-15.288 8.7408 5.8431 6.3836 24.621 9.0374 30.734-0.35072-2.6861-4.7366-7.1246-8.239-13.825-8.39-0.55428-0.012492-1.1066-0.016633-1.6211 0z" fill="none" opacity=".586" stroke="url(#e)" stroke-width="1.143"/>
  <path transform="translate(0 -.512) matrix(1 0 0 1 0 -36.982)" d="m0.79869 174.23c-0.89661-9.5411 0.10924-28.347 13.319-31.403l43.535-9.3144 45.469 8.6428c13.435 2.8723 14.9 21.4 15.303 31.831-117.85 0.4466 0.0526-0.0905-117.63 0.24343z" fill-rule="evenodd" stroke="#323232" stroke-width="1.113"/>
  <path d="m57.177 97.079l-42.743 9.6388h-0.03558c-5.9617 1.3948-9.1562 6.266-10.868 12.258-1.5823 5.5376-1.6803 11.731-1.3541 16.32 27.857-0.0784 42.925-0.1385 50.066-0.14254 3.6696-2e-3 5.4946 0.0286 6.4141 0.0356 0.45975 4e-3 0.66784-6e-3 0.81958 0 0.05086 2e-3 0.14077 0.0272 0.2138 0.0356 0.01026 3.4e-4 0.08974-3.7e-4 0.10685 0 0.10274 2e-3 0.25296-1e-3 0.64141 0 0.90638 3e-3 2.7359 9e-3 6.4141 0 7.1379-0.0177 22.286-0.0733 50.03-0.17817-0.23419-5.0254-0.76254-11.324-2.6013-16.855-2.0027-6.0241-5.3218-10.794-11.403-12.116l-45.7-8.9973z" opacity=".593" stroke="url(#h)" stroke-width="1.113"/>
  <path transform="translate(0 -.512) matrix(1 0 0 1 0 -36.982)" d="m45.24 124.69c0.23208 5.6323-1.1029 8.8784-3.7416 13.652 5.1369 9.4419 10.267 15.416 18.122 21.915 7.8547-7.4273 13.929-13.92 18.087-22.447-1.2552-3.4558-2.5104-8.1405-3.7657-13.235l-28.701 0.11464z" fill="#ffcdb2" fill-rule="evenodd" stroke="#000" stroke-width="1.113"/>
  <path transform="translate(0 -.512) matrix(1 0 0 1 0 -36.982)" d="m87.181 100.68c0 18.673-11.842 33.419-28.576 37.515-13.457-4.096-26.118-18.842-26.118-37.515s12.252-33.828 27.347-33.828c15.096 0 27.347 15.155 27.347 33.828z" fill="#ffcdb2" stroke="#000" stroke-linejoin="round" stroke-width=".976"/>
  <path transform="translate(0 -.512) matrix(1 0 0 1 0 -36.982)" d="m58.737 60.552c-26.107 0.70447-31.018 19.977-29.624 34.472 0.21647 2.2511 5.1646 36.423 6.795 38.244 1.2252-11.431-0.16545-52.36 13.501-59.173l9.7028 3.0935 10.358-2.8047c13.721 5.9241 11.45 53.634 12.436 59.039 1.4795-1.995 6.7096-36.875 7.1083-39.559 2.0748-13.964-5.7951-32.902-27.663-33.313-0.88679-0.01669-1.7717-0.02273-2.6139 0z" fill="url(#g)" fill-rule="evenodd" stroke="#000"/>
  <path transform="translate(0 -.512) matrix(1 0 0 1 0 -36.982)" d="m58.763 61.683c-12.772 0.34462-20.081 5.132-24.195 11.545 9.2474 8.4318 38.965 11.937 48.64-0.46325-4.2512-6.2564-11.276-10.883-21.879-11.082-0.87722-0.0165-1.7513-0.02197-2.5656 0z" fill="none" opacity=".586" stroke="url(#e)" stroke-width="1.143"/>
 </g>
</svg>
